<mxfile host="Electron" modified="2024-03-11T16:49:24.725Z" agent="Mozilla/5.0 (Windows NT 10.0; Win64; x64) AppleWebKit/537.36 (KHTML, like Gecko) draw.io/24.0.4 Chrome/120.0.6099.109 Electron/28.1.0 Safari/537.36" etag="ose390JsRWSxtrebAb5I" version="24.0.4" type="device">
  <diagram name="Page-1" id="e7e014a7-5840-1c2e-5031-d8a46d1fe8dd">
    <mxGraphModel dx="1050" dy="1447" grid="1" gridSize="10" guides="1" tooltips="1" connect="1" arrows="1" fold="1" page="1" pageScale="1" pageWidth="1169" pageHeight="826" background="none" math="0" shadow="0">
      <root>
        <mxCell id="0" />
        <mxCell id="1" parent="0" />
        <mxCell id="Q1dbe1PUV9DMPkc63lTy-54" value="" style="edgeStyle=orthogonalEdgeStyle;rounded=0;orthogonalLoop=1;jettySize=auto;html=1;endArrow=block;endFill=0;" parent="1" source="Nrq3FAHFyExciN8IFQEu-42" target="Q1dbe1PUV9DMPkc63lTy-52" edge="1">
          <mxGeometry relative="1" as="geometry" />
        </mxCell>
        <mxCell id="Nrq3FAHFyExciN8IFQEu-42" value="MyLinkedList&lt;T&gt;" style="swimlane;fontStyle=1;align=center;verticalAlign=top;childLayout=stackLayout;horizontal=1;startSize=26;horizontalStack=0;resizeParent=1;resizeParentMax=0;resizeLast=0;collapsible=1;marginBottom=0;fontSize=12;" parent="1" vertex="1">
          <mxGeometry x="230" y="-10" width="180" height="300" as="geometry" />
        </mxCell>
        <mxCell id="Nrq3FAHFyExciN8IFQEu-43" value="- head: Node&lt;T&gt;" style="text;strokeColor=none;fillColor=none;align=left;verticalAlign=top;spacingLeft=4;spacingRight=4;overflow=hidden;rotatable=0;points=[[0,0.5],[1,0.5]];portConstraint=eastwest;fontSize=12;" parent="Nrq3FAHFyExciN8IFQEu-42" vertex="1">
          <mxGeometry y="26" width="180" height="26" as="geometry" />
        </mxCell>
        <mxCell id="Nrq3FAHFyExciN8IFQEu-44" value="" style="line;strokeWidth=1;fillColor=none;align=left;verticalAlign=middle;spacingTop=-1;spacingLeft=3;spacingRight=3;rotatable=0;labelPosition=right;points=[];portConstraint=eastwest;fontSize=12;" parent="Nrq3FAHFyExciN8IFQEu-42" vertex="1">
          <mxGeometry y="52" width="180" height="8" as="geometry" />
        </mxCell>
        <mxCell id="Nrq3FAHFyExciN8IFQEu-45" value="+ insertAtHead(T...): void&#xa;&#xa;" style="text;strokeColor=none;fillColor=none;align=left;verticalAlign=top;spacingLeft=4;spacingRight=4;overflow=hidden;rotatable=0;points=[[0,0.5],[1,0.5]];portConstraint=eastwest;fontSize=12;" parent="Nrq3FAHFyExciN8IFQEu-42" vertex="1">
          <mxGeometry y="60" width="180" height="30" as="geometry" />
        </mxCell>
        <mxCell id="Q1dbe1PUV9DMPkc63lTy-44" value="+ isEmpty(): boolean&#xa;&#xa;" style="text;strokeColor=none;fillColor=none;align=left;verticalAlign=top;spacingLeft=4;spacingRight=4;overflow=hidden;rotatable=0;points=[[0,0.5],[1,0.5]];portConstraint=eastwest;fontSize=12;" parent="Nrq3FAHFyExciN8IFQEu-42" vertex="1">
          <mxGeometry y="90" width="180" height="30" as="geometry" />
        </mxCell>
        <mxCell id="Q1dbe1PUV9DMPkc63lTy-45" value="+ popElementAtHead(): T&#xa;&#xa;" style="text;strokeColor=none;fillColor=none;align=left;verticalAlign=top;spacingLeft=4;spacingRight=4;overflow=hidden;rotatable=0;points=[[0,0.5],[1,0.5]];portConstraint=eastwest;fontSize=12;" parent="Nrq3FAHFyExciN8IFQEu-42" vertex="1">
          <mxGeometry y="120" width="180" height="30" as="geometry" />
        </mxCell>
        <mxCell id="Q1dbe1PUV9DMPkc63lTy-46" value="+ size(): int&#xa;&#xa;" style="text;strokeColor=none;fillColor=none;align=left;verticalAlign=top;spacingLeft=4;spacingRight=4;overflow=hidden;rotatable=0;points=[[0,0.5],[1,0.5]];portConstraint=eastwest;fontSize=12;" parent="Nrq3FAHFyExciN8IFQEu-42" vertex="1">
          <mxGeometry y="150" width="180" height="30" as="geometry" />
        </mxCell>
        <mxCell id="Q1dbe1PUV9DMPkc63lTy-47" value="+ getHead(): T&#xa;&#xa;" style="text;strokeColor=none;fillColor=none;align=left;verticalAlign=top;spacingLeft=4;spacingRight=4;overflow=hidden;rotatable=0;points=[[0,0.5],[1,0.5]];portConstraint=eastwest;fontSize=12;" parent="Nrq3FAHFyExciN8IFQEu-42" vertex="1">
          <mxGeometry y="180" width="180" height="30" as="geometry" />
        </mxCell>
        <mxCell id="Q1dbe1PUV9DMPkc63lTy-48" value="+ removeElement(T): void&#xa;&#xa;" style="text;strokeColor=none;fillColor=none;align=left;verticalAlign=top;spacingLeft=4;spacingRight=4;overflow=hidden;rotatable=0;points=[[0,0.5],[1,0.5]];portConstraint=eastwest;fontSize=12;" parent="Nrq3FAHFyExciN8IFQEu-42" vertex="1">
          <mxGeometry y="210" width="180" height="30" as="geometry" />
        </mxCell>
        <mxCell id="Q1dbe1PUV9DMPkc63lTy-49" value="+ get(int): T&#xa;&#xa;" style="text;strokeColor=none;fillColor=none;align=left;verticalAlign=top;spacingLeft=4;spacingRight=4;overflow=hidden;rotatable=0;points=[[0,0.5],[1,0.5]];portConstraint=eastwest;fontSize=12;" parent="Nrq3FAHFyExciN8IFQEu-42" vertex="1">
          <mxGeometry y="240" width="180" height="30" as="geometry" />
        </mxCell>
        <mxCell id="Q1dbe1PUV9DMPkc63lTy-50" value="+ iterator():Â Iterator&lt;T&gt;&#xa;&#xa;" style="text;strokeColor=none;fillColor=none;align=left;verticalAlign=top;spacingLeft=4;spacingRight=4;overflow=hidden;rotatable=0;points=[[0,0.5],[1,0.5]];portConstraint=eastwest;fontSize=12;" parent="Nrq3FAHFyExciN8IFQEu-42" vertex="1">
          <mxGeometry y="270" width="180" height="30" as="geometry" />
        </mxCell>
        <mxCell id="etm-aiOEzSy-xyWZLdfD-7" value="Node&amp;lt;E&amp;gt;" style="swimlane;fontStyle=0;childLayout=stackLayout;horizontal=1;startSize=26;fillColor=none;horizontalStack=0;resizeParent=1;resizeParentMax=0;resizeLast=0;collapsible=1;marginBottom=0;whiteSpace=wrap;html=1;" parent="1" vertex="1">
          <mxGeometry x="120" y="491" width="140" height="164" as="geometry" />
        </mxCell>
        <mxCell id="etm-aiOEzSy-xyWZLdfD-8" value="- next: Node&amp;lt;E&amp;gt;" style="text;strokeColor=none;fillColor=none;align=left;verticalAlign=top;spacingLeft=4;spacingRight=4;overflow=hidden;rotatable=0;points=[[0,0.5],[1,0.5]];portConstraint=eastwest;whiteSpace=wrap;html=1;" parent="etm-aiOEzSy-xyWZLdfD-7" vertex="1">
          <mxGeometry y="26" width="140" height="26" as="geometry" />
        </mxCell>
        <mxCell id="etm-aiOEzSy-xyWZLdfD-9" value="- value: E" style="text;strokeColor=none;fillColor=none;align=left;verticalAlign=top;spacingLeft=4;spacingRight=4;overflow=hidden;rotatable=0;points=[[0,0.5],[1,0.5]];portConstraint=eastwest;whiteSpace=wrap;html=1;" parent="etm-aiOEzSy-xyWZLdfD-7" vertex="1">
          <mxGeometry y="52" width="140" height="28" as="geometry" />
        </mxCell>
        <mxCell id="Q1dbe1PUV9DMPkc63lTy-17" value="+ getNext: Node&amp;lt;E&amp;gt;" style="text;strokeColor=none;fillColor=none;align=left;verticalAlign=top;spacingLeft=4;spacingRight=4;overflow=hidden;rotatable=0;points=[[0,0.5],[1,0.5]];portConstraint=eastwest;whiteSpace=wrap;html=1;" parent="etm-aiOEzSy-xyWZLdfD-7" vertex="1">
          <mxGeometry y="80" width="140" height="28" as="geometry" />
        </mxCell>
        <mxCell id="Q1dbe1PUV9DMPkc63lTy-19" value="+ setNext: void" style="text;strokeColor=none;fillColor=none;align=left;verticalAlign=top;spacingLeft=4;spacingRight=4;overflow=hidden;rotatable=0;points=[[0,0.5],[1,0.5]];portConstraint=eastwest;whiteSpace=wrap;html=1;" parent="etm-aiOEzSy-xyWZLdfD-7" vertex="1">
          <mxGeometry y="108" width="140" height="28" as="geometry" />
        </mxCell>
        <mxCell id="Q1dbe1PUV9DMPkc63lTy-20" value="+ getValue: E" style="text;strokeColor=none;fillColor=none;align=left;verticalAlign=top;spacingLeft=4;spacingRight=4;overflow=hidden;rotatable=0;points=[[0,0.5],[1,0.5]];portConstraint=eastwest;whiteSpace=wrap;html=1;" parent="etm-aiOEzSy-xyWZLdfD-7" vertex="1">
          <mxGeometry y="136" width="140" height="28" as="geometry" />
        </mxCell>
        <mxCell id="Q1dbe1PUV9DMPkc63lTy-8" style="edgeStyle=orthogonalEdgeStyle;rounded=0;orthogonalLoop=1;jettySize=auto;html=1;entryX=0.75;entryY=0;entryDx=0;entryDy=0;endArrow=open;endFill=0;" parent="1" edge="1">
          <mxGeometry relative="1" as="geometry">
            <mxPoint x="220.50000000000023" y="491" as="sourcePoint" />
            <mxPoint x="255.5" y="491" as="targetPoint" />
            <Array as="points">
              <mxPoint x="220.5" y="471" />
              <mxPoint x="255.5" y="471" />
            </Array>
          </mxGeometry>
        </mxCell>
        <mxCell id="Q1dbe1PUV9DMPkc63lTy-9" value="- next" style="text;html=1;align=center;verticalAlign=middle;resizable=0;points=[];autosize=1;strokeColor=none;fillColor=none;" parent="1" vertex="1">
          <mxGeometry x="210.5" y="449" width="50" height="30" as="geometry" />
        </mxCell>
        <mxCell id="Q1dbe1PUV9DMPkc63lTy-10" value="0..1" style="text;html=1;align=center;verticalAlign=middle;resizable=0;points=[];autosize=1;strokeColor=none;fillColor=none;" parent="1" vertex="1">
          <mxGeometry x="251.5" y="466" width="40" height="30" as="geometry" />
        </mxCell>
        <mxCell id="Q1dbe1PUV9DMPkc63lTy-18" value="" style="line;strokeWidth=1;fillColor=none;align=left;verticalAlign=middle;spacingTop=-1;spacingLeft=3;spacingRight=3;rotatable=0;labelPosition=right;points=[];portConstraint=eastwest;fontSize=12;" parent="1" vertex="1">
          <mxGeometry x="120" y="571" width="140" height="8" as="geometry" />
        </mxCell>
        <mxCell id="Q1dbe1PUV9DMPkc63lTy-26" value="MyLinkedListIterator" style="swimlane;fontStyle=1;align=center;verticalAlign=top;childLayout=stackLayout;horizontal=1;startSize=26;horizontalStack=0;resizeParent=1;resizeParentMax=0;resizeLast=0;collapsible=1;marginBottom=0;whiteSpace=wrap;html=1;" parent="1" vertex="1">
          <mxGeometry x="310" y="549" width="160" height="112" as="geometry" />
        </mxCell>
        <mxCell id="Q1dbe1PUV9DMPkc63lTy-27" value="- current: Node&amp;lt;T&amp;gt;" style="text;strokeColor=none;fillColor=none;align=left;verticalAlign=top;spacingLeft=4;spacingRight=4;overflow=hidden;rotatable=0;points=[[0,0.5],[1,0.5]];portConstraint=eastwest;whiteSpace=wrap;html=1;" parent="Q1dbe1PUV9DMPkc63lTy-26" vertex="1">
          <mxGeometry y="26" width="160" height="26" as="geometry" />
        </mxCell>
        <mxCell id="Q1dbe1PUV9DMPkc63lTy-28" value="" style="line;strokeWidth=1;fillColor=none;align=left;verticalAlign=middle;spacingTop=-1;spacingLeft=3;spacingRight=3;rotatable=0;labelPosition=right;points=[];portConstraint=eastwest;strokeColor=inherit;" parent="Q1dbe1PUV9DMPkc63lTy-26" vertex="1">
          <mxGeometry y="52" width="160" height="8" as="geometry" />
        </mxCell>
        <mxCell id="Q1dbe1PUV9DMPkc63lTy-29" value="+ hasNext(): boolean" style="text;strokeColor=none;fillColor=none;align=left;verticalAlign=top;spacingLeft=4;spacingRight=4;overflow=hidden;rotatable=0;points=[[0,0.5],[1,0.5]];portConstraint=eastwest;whiteSpace=wrap;html=1;" parent="Q1dbe1PUV9DMPkc63lTy-26" vertex="1">
          <mxGeometry y="60" width="160" height="26" as="geometry" />
        </mxCell>
        <mxCell id="Q1dbe1PUV9DMPkc63lTy-33" value="+ next(): T" style="text;strokeColor=none;fillColor=none;align=left;verticalAlign=top;spacingLeft=4;spacingRight=4;overflow=hidden;rotatable=0;points=[[0,0.5],[1,0.5]];portConstraint=eastwest;whiteSpace=wrap;html=1;" parent="Q1dbe1PUV9DMPkc63lTy-26" vertex="1">
          <mxGeometry y="86" width="160" height="26" as="geometry" />
        </mxCell>
        <mxCell id="Q1dbe1PUV9DMPkc63lTy-30" value="Â«interfaceÂ»&lt;br&gt;&lt;b&gt;Iterator&amp;lt;T&amp;gt;&lt;/b&gt;" style="html=1;whiteSpace=wrap;" parent="1" vertex="1">
          <mxGeometry x="335" y="466" width="110" height="50" as="geometry" />
        </mxCell>
        <mxCell id="Q1dbe1PUV9DMPkc63lTy-32" value="" style="endArrow=block;dashed=1;endFill=0;endSize=12;html=1;rounded=0;entryX=0.5;entryY=1;entryDx=0;entryDy=0;exitX=0.5;exitY=0;exitDx=0;exitDy=0;" parent="1" source="Q1dbe1PUV9DMPkc63lTy-26" target="Q1dbe1PUV9DMPkc63lTy-30" edge="1">
          <mxGeometry width="160" relative="1" as="geometry">
            <mxPoint x="389.71" y="549" as="sourcePoint" />
            <mxPoint x="390" y="519" as="targetPoint" />
          </mxGeometry>
        </mxCell>
        <mxCell id="Q1dbe1PUV9DMPkc63lTy-39" style="edgeStyle=orthogonalEdgeStyle;rounded=0;orthogonalLoop=1;jettySize=auto;html=1;entryX=0.5;entryY=0;entryDx=0;entryDy=0;endArrow=circlePlus;endFill=0;" parent="1" target="etm-aiOEzSy-xyWZLdfD-7" edge="1">
          <mxGeometry relative="1" as="geometry">
            <mxPoint x="320" y="360" as="sourcePoint" />
            <Array as="points">
              <mxPoint x="320" y="429" />
              <mxPoint x="190" y="429" />
            </Array>
          </mxGeometry>
        </mxCell>
        <mxCell id="Q1dbe1PUV9DMPkc63lTy-41" style="edgeStyle=orthogonalEdgeStyle;rounded=0;orthogonalLoop=1;jettySize=auto;html=1;endArrow=circlePlus;endFill=0;" parent="1" edge="1">
          <mxGeometry relative="1" as="geometry">
            <mxPoint x="320" y="290" as="sourcePoint" />
            <mxPoint x="320" y="549" as="targetPoint" />
            <Array as="points">
              <mxPoint x="320" y="549" />
            </Array>
          </mxGeometry>
        </mxCell>
        <mxCell id="Q1dbe1PUV9DMPkc63lTy-52" value="&lt;p style=&quot;margin:0px;margin-top:4px;text-align:center;&quot;&gt;&lt;br&gt;&lt;b&gt;&lt;i&gt;AbstractList&amp;lt;T&amp;gt;&lt;/i&gt;&lt;/b&gt;&lt;br&gt;&lt;/p&gt;" style="verticalAlign=top;align=left;overflow=fill;html=1;whiteSpace=wrap;" parent="1" vertex="1">
          <mxGeometry x="250.5" y="-100" width="140" height="60" as="geometry" />
        </mxCell>
        <mxCell id="Q1dbe1PUV9DMPkc63lTy-91" style="edgeStyle=orthogonalEdgeStyle;rounded=0;orthogonalLoop=1;jettySize=auto;html=1;entryX=0.5;entryY=0;entryDx=0;entryDy=0;endArrow=circlePlus;endFill=0;" parent="1" source="Q1dbe1PUV9DMPkc63lTy-56" target="Q1dbe1PUV9DMPkc63lTy-67" edge="1">
          <mxGeometry relative="1" as="geometry" />
        </mxCell>
        <mxCell id="Q1dbe1PUV9DMPkc63lTy-56" value="MyDoubleLinkedList&lt;T&gt;" style="swimlane;fontStyle=1;align=center;verticalAlign=top;childLayout=stackLayout;horizontal=1;startSize=26;horizontalStack=0;resizeParent=1;resizeParentMax=0;resizeLast=0;collapsible=1;marginBottom=0;fontSize=12;" parent="1" vertex="1">
          <mxGeometry x="800" y="-66" width="180" height="356" as="geometry" />
        </mxCell>
        <mxCell id="Q1dbe1PUV9DMPkc63lTy-108" value="- head: Node&lt;T&gt;" style="text;strokeColor=none;fillColor=none;align=left;verticalAlign=top;spacingLeft=4;spacingRight=4;overflow=hidden;rotatable=0;points=[[0,0.5],[1,0.5]];portConstraint=eastwest;fontSize=12;" parent="Q1dbe1PUV9DMPkc63lTy-56" vertex="1">
          <mxGeometry y="26" width="180" height="26" as="geometry" />
        </mxCell>
        <mxCell id="Q1dbe1PUV9DMPkc63lTy-57" value="- tail: Node&lt;T&gt;" style="text;strokeColor=none;fillColor=none;align=left;verticalAlign=top;spacingLeft=4;spacingRight=4;overflow=hidden;rotatable=0;points=[[0,0.5],[1,0.5]];portConstraint=eastwest;fontSize=12;" parent="Q1dbe1PUV9DMPkc63lTy-56" vertex="1">
          <mxGeometry y="52" width="180" height="26" as="geometry" />
        </mxCell>
        <mxCell id="Q1dbe1PUV9DMPkc63lTy-58" value="" style="line;strokeWidth=1;fillColor=none;align=left;verticalAlign=middle;spacingTop=-1;spacingLeft=3;spacingRight=3;rotatable=0;labelPosition=right;points=[];portConstraint=eastwest;fontSize=12;" parent="Q1dbe1PUV9DMPkc63lTy-56" vertex="1">
          <mxGeometry y="78" width="180" height="8" as="geometry" />
        </mxCell>
        <mxCell id="Q1dbe1PUV9DMPkc63lTy-106" value="+ insertAtHead(T...): void&#xa;&#xa;" style="text;strokeColor=none;fillColor=none;align=left;verticalAlign=top;spacingLeft=4;spacingRight=4;overflow=hidden;rotatable=0;points=[[0,0.5],[1,0.5]];portConstraint=eastwest;fontSize=12;" parent="Q1dbe1PUV9DMPkc63lTy-56" vertex="1">
          <mxGeometry y="86" width="180" height="30" as="geometry" />
        </mxCell>
        <mxCell id="Q1dbe1PUV9DMPkc63lTy-59" value="+ insertAtTail(T...): void&#xa;&#xa;" style="text;strokeColor=none;fillColor=none;align=left;verticalAlign=top;spacingLeft=4;spacingRight=4;overflow=hidden;rotatable=0;points=[[0,0.5],[1,0.5]];portConstraint=eastwest;fontSize=12;" parent="Q1dbe1PUV9DMPkc63lTy-56" vertex="1">
          <mxGeometry y="116" width="180" height="30" as="geometry" />
        </mxCell>
        <mxCell id="Q1dbe1PUV9DMPkc63lTy-60" value="+ isEmpty(): boolean&#xa;&#xa;" style="text;strokeColor=none;fillColor=none;align=left;verticalAlign=top;spacingLeft=4;spacingRight=4;overflow=hidden;rotatable=0;points=[[0,0.5],[1,0.5]];portConstraint=eastwest;fontSize=12;" parent="Q1dbe1PUV9DMPkc63lTy-56" vertex="1">
          <mxGeometry y="146" width="180" height="30" as="geometry" />
        </mxCell>
        <mxCell id="Q1dbe1PUV9DMPkc63lTy-62" value="+ size(): int&#xa;&#xa;" style="text;strokeColor=none;fillColor=none;align=left;verticalAlign=top;spacingLeft=4;spacingRight=4;overflow=hidden;rotatable=0;points=[[0,0.5],[1,0.5]];portConstraint=eastwest;fontSize=12;" parent="Q1dbe1PUV9DMPkc63lTy-56" vertex="1">
          <mxGeometry y="176" width="180" height="30" as="geometry" />
        </mxCell>
        <mxCell id="Q1dbe1PUV9DMPkc63lTy-107" value="+ getHead(): T&#xa;&#xa;" style="text;strokeColor=none;fillColor=none;align=left;verticalAlign=top;spacingLeft=4;spacingRight=4;overflow=hidden;rotatable=0;points=[[0,0.5],[1,0.5]];portConstraint=eastwest;fontSize=12;" parent="Q1dbe1PUV9DMPkc63lTy-56" vertex="1">
          <mxGeometry y="206" width="180" height="30" as="geometry" />
        </mxCell>
        <mxCell id="Q1dbe1PUV9DMPkc63lTy-63" value="+ getTail(): T&#xa;&#xa;" style="text;strokeColor=none;fillColor=none;align=left;verticalAlign=top;spacingLeft=4;spacingRight=4;overflow=hidden;rotatable=0;points=[[0,0.5],[1,0.5]];portConstraint=eastwest;fontSize=12;" parent="Q1dbe1PUV9DMPkc63lTy-56" vertex="1">
          <mxGeometry y="236" width="180" height="30" as="geometry" />
        </mxCell>
        <mxCell id="Q1dbe1PUV9DMPkc63lTy-64" value="+ removeElement(T): void&#xa;&#xa;" style="text;strokeColor=none;fillColor=none;align=left;verticalAlign=top;spacingLeft=4;spacingRight=4;overflow=hidden;rotatable=0;points=[[0,0.5],[1,0.5]];portConstraint=eastwest;fontSize=12;" parent="Q1dbe1PUV9DMPkc63lTy-56" vertex="1">
          <mxGeometry y="266" width="180" height="30" as="geometry" />
        </mxCell>
        <mxCell id="Q1dbe1PUV9DMPkc63lTy-65" value="+ get(int): T&#xa;&#xa;" style="text;strokeColor=none;fillColor=none;align=left;verticalAlign=top;spacingLeft=4;spacingRight=4;overflow=hidden;rotatable=0;points=[[0,0.5],[1,0.5]];portConstraint=eastwest;fontSize=12;" parent="Q1dbe1PUV9DMPkc63lTy-56" vertex="1">
          <mxGeometry y="296" width="180" height="30" as="geometry" />
        </mxCell>
        <mxCell id="Q1dbe1PUV9DMPkc63lTy-66" value="+ iterator():Â Iterator&lt;T&gt;&#xa;&#xa;" style="text;strokeColor=none;fillColor=none;align=left;verticalAlign=top;spacingLeft=4;spacingRight=4;overflow=hidden;rotatable=0;points=[[0,0.5],[1,0.5]];portConstraint=eastwest;fontSize=12;" parent="Q1dbe1PUV9DMPkc63lTy-56" vertex="1">
          <mxGeometry y="326" width="180" height="30" as="geometry" />
        </mxCell>
        <mxCell id="Q1dbe1PUV9DMPkc63lTy-67" value="Node&amp;lt;E&amp;gt;" style="swimlane;fontStyle=0;childLayout=stackLayout;horizontal=1;startSize=26;fillColor=none;horizontalStack=0;resizeParent=1;resizeParentMax=0;resizeLast=0;collapsible=1;marginBottom=0;whiteSpace=wrap;html=1;" parent="1" vertex="1">
          <mxGeometry x="680" y="491" width="150" height="254" as="geometry" />
        </mxCell>
        <mxCell id="Q1dbe1PUV9DMPkc63lTy-103" value="- next: Node&amp;lt;E&amp;gt;" style="text;strokeColor=none;fillColor=none;align=left;verticalAlign=top;spacingLeft=4;spacingRight=4;overflow=hidden;rotatable=0;points=[[0,0.5],[1,0.5]];portConstraint=eastwest;whiteSpace=wrap;html=1;" parent="Q1dbe1PUV9DMPkc63lTy-67" vertex="1">
          <mxGeometry y="26" width="150" height="26" as="geometry" />
        </mxCell>
        <mxCell id="Q1dbe1PUV9DMPkc63lTy-68" value="- previous: Node&amp;lt;E&amp;gt;" style="text;strokeColor=none;fillColor=none;align=left;verticalAlign=top;spacingLeft=4;spacingRight=4;overflow=hidden;rotatable=0;points=[[0,0.5],[1,0.5]];portConstraint=eastwest;whiteSpace=wrap;html=1;" parent="Q1dbe1PUV9DMPkc63lTy-67" vertex="1">
          <mxGeometry y="52" width="150" height="26" as="geometry" />
        </mxCell>
        <mxCell id="Q1dbe1PUV9DMPkc63lTy-69" value="- value: E" style="text;strokeColor=none;fillColor=none;align=left;verticalAlign=top;spacingLeft=4;spacingRight=4;overflow=hidden;rotatable=0;points=[[0,0.5],[1,0.5]];portConstraint=eastwest;whiteSpace=wrap;html=1;" parent="Q1dbe1PUV9DMPkc63lTy-67" vertex="1">
          <mxGeometry y="78" width="150" height="28" as="geometry" />
        </mxCell>
        <mxCell id="Q1dbe1PUV9DMPkc63lTy-76" value="" style="line;strokeWidth=1;fillColor=none;align=left;verticalAlign=middle;spacingTop=-1;spacingLeft=3;spacingRight=3;rotatable=0;labelPosition=right;points=[];portConstraint=eastwest;fontSize=12;" parent="Q1dbe1PUV9DMPkc63lTy-67" vertex="1">
          <mxGeometry y="106" width="150" height="8" as="geometry" />
        </mxCell>
        <mxCell id="Q1dbe1PUV9DMPkc63lTy-72" value="+ getValue: E" style="text;strokeColor=none;fillColor=none;align=left;verticalAlign=top;spacingLeft=4;spacingRight=4;overflow=hidden;rotatable=0;points=[[0,0.5],[1,0.5]];portConstraint=eastwest;whiteSpace=wrap;html=1;" parent="Q1dbe1PUV9DMPkc63lTy-67" vertex="1">
          <mxGeometry y="114" width="150" height="28" as="geometry" />
        </mxCell>
        <mxCell id="Q1dbe1PUV9DMPkc63lTy-104" value="+ getNext: Node&amp;lt;E&amp;gt;" style="text;strokeColor=none;fillColor=none;align=left;verticalAlign=top;spacingLeft=4;spacingRight=4;overflow=hidden;rotatable=0;points=[[0,0.5],[1,0.5]];portConstraint=eastwest;whiteSpace=wrap;html=1;" parent="Q1dbe1PUV9DMPkc63lTy-67" vertex="1">
          <mxGeometry y="142" width="150" height="28" as="geometry" />
        </mxCell>
        <mxCell id="Q1dbe1PUV9DMPkc63lTy-70" value="+ getPrevious: Node&amp;lt;E&amp;gt;" style="text;strokeColor=none;fillColor=none;align=left;verticalAlign=top;spacingLeft=4;spacingRight=4;overflow=hidden;rotatable=0;points=[[0,0.5],[1,0.5]];portConstraint=eastwest;whiteSpace=wrap;html=1;" parent="Q1dbe1PUV9DMPkc63lTy-67" vertex="1">
          <mxGeometry y="170" width="150" height="28" as="geometry" />
        </mxCell>
        <mxCell id="Q1dbe1PUV9DMPkc63lTy-105" value="+ setNext: void" style="text;strokeColor=none;fillColor=none;align=left;verticalAlign=top;spacingLeft=4;spacingRight=4;overflow=hidden;rotatable=0;points=[[0,0.5],[1,0.5]];portConstraint=eastwest;whiteSpace=wrap;html=1;" parent="Q1dbe1PUV9DMPkc63lTy-67" vertex="1">
          <mxGeometry y="198" width="150" height="28" as="geometry" />
        </mxCell>
        <mxCell id="Q1dbe1PUV9DMPkc63lTy-71" value="+ setPrevious: void" style="text;strokeColor=none;fillColor=none;align=left;verticalAlign=top;spacingLeft=4;spacingRight=4;overflow=hidden;rotatable=0;points=[[0,0.5],[1,0.5]];portConstraint=eastwest;whiteSpace=wrap;html=1;" parent="Q1dbe1PUV9DMPkc63lTy-67" vertex="1">
          <mxGeometry y="226" width="150" height="28" as="geometry" />
        </mxCell>
        <mxCell id="Q1dbe1PUV9DMPkc63lTy-73" style="edgeStyle=orthogonalEdgeStyle;rounded=0;orthogonalLoop=1;jettySize=auto;html=1;entryX=0.75;entryY=0;entryDx=0;entryDy=0;endArrow=open;endFill=0;" parent="1" edge="1">
          <mxGeometry relative="1" as="geometry">
            <mxPoint x="790.5000000000002" y="491" as="sourcePoint" />
            <mxPoint x="825.5" y="491" as="targetPoint" />
            <Array as="points">
              <mxPoint x="790.5" y="471" />
              <mxPoint x="825.5" y="471" />
            </Array>
          </mxGeometry>
        </mxCell>
        <mxCell id="Q1dbe1PUV9DMPkc63lTy-74" value="- previous" style="text;html=1;align=center;verticalAlign=middle;resizable=0;points=[];autosize=1;strokeColor=none;fillColor=none;" parent="1" vertex="1">
          <mxGeometry x="765.5" y="449" width="80" height="30" as="geometry" />
        </mxCell>
        <mxCell id="Q1dbe1PUV9DMPkc63lTy-75" value="0..1" style="text;html=1;align=center;verticalAlign=middle;resizable=0;points=[];autosize=1;strokeColor=none;fillColor=none;" parent="1" vertex="1">
          <mxGeometry x="821.5" y="466" width="40" height="30" as="geometry" />
        </mxCell>
        <mxCell id="Q1dbe1PUV9DMPkc63lTy-77" value="MyLinkedListIterator" style="swimlane;fontStyle=1;align=center;verticalAlign=top;childLayout=stackLayout;horizontal=1;startSize=26;horizontalStack=0;resizeParent=1;resizeParentMax=0;resizeLast=0;collapsible=1;marginBottom=0;whiteSpace=wrap;html=1;" parent="1" vertex="1">
          <mxGeometry x="880" y="549" width="160" height="112" as="geometry" />
        </mxCell>
        <mxCell id="Q1dbe1PUV9DMPkc63lTy-78" value="- current: Node&amp;lt;T&amp;gt;" style="text;strokeColor=none;fillColor=none;align=left;verticalAlign=top;spacingLeft=4;spacingRight=4;overflow=hidden;rotatable=0;points=[[0,0.5],[1,0.5]];portConstraint=eastwest;whiteSpace=wrap;html=1;" parent="Q1dbe1PUV9DMPkc63lTy-77" vertex="1">
          <mxGeometry y="26" width="160" height="26" as="geometry" />
        </mxCell>
        <mxCell id="Q1dbe1PUV9DMPkc63lTy-79" value="" style="line;strokeWidth=1;fillColor=none;align=left;verticalAlign=middle;spacingTop=-1;spacingLeft=3;spacingRight=3;rotatable=0;labelPosition=right;points=[];portConstraint=eastwest;strokeColor=inherit;" parent="Q1dbe1PUV9DMPkc63lTy-77" vertex="1">
          <mxGeometry y="52" width="160" height="8" as="geometry" />
        </mxCell>
        <mxCell id="Q1dbe1PUV9DMPkc63lTy-80" value="+ hasNext(): boolean" style="text;strokeColor=none;fillColor=none;align=left;verticalAlign=top;spacingLeft=4;spacingRight=4;overflow=hidden;rotatable=0;points=[[0,0.5],[1,0.5]];portConstraint=eastwest;whiteSpace=wrap;html=1;" parent="Q1dbe1PUV9DMPkc63lTy-77" vertex="1">
          <mxGeometry y="60" width="160" height="26" as="geometry" />
        </mxCell>
        <mxCell id="Q1dbe1PUV9DMPkc63lTy-81" value="+ next(): T" style="text;strokeColor=none;fillColor=none;align=left;verticalAlign=top;spacingLeft=4;spacingRight=4;overflow=hidden;rotatable=0;points=[[0,0.5],[1,0.5]];portConstraint=eastwest;whiteSpace=wrap;html=1;" parent="Q1dbe1PUV9DMPkc63lTy-77" vertex="1">
          <mxGeometry y="86" width="160" height="26" as="geometry" />
        </mxCell>
        <mxCell id="Q1dbe1PUV9DMPkc63lTy-82" value="Â«interfaceÂ»&lt;br&gt;&lt;b&gt;Iterator&amp;lt;T&amp;gt;&lt;/b&gt;" style="html=1;whiteSpace=wrap;" parent="1" vertex="1">
          <mxGeometry x="905" y="466" width="110" height="50" as="geometry" />
        </mxCell>
        <mxCell id="Q1dbe1PUV9DMPkc63lTy-83" value="" style="endArrow=block;dashed=1;endFill=0;endSize=12;html=1;rounded=0;entryX=0.5;entryY=1;entryDx=0;entryDy=0;exitX=0.5;exitY=0;exitDx=0;exitDy=0;" parent="1" source="Q1dbe1PUV9DMPkc63lTy-77" target="Q1dbe1PUV9DMPkc63lTy-82" edge="1">
          <mxGeometry width="160" relative="1" as="geometry">
            <mxPoint x="959.71" y="549" as="sourcePoint" />
            <mxPoint x="960" y="519" as="targetPoint" />
          </mxGeometry>
        </mxCell>
        <mxCell id="Q1dbe1PUV9DMPkc63lTy-85" style="edgeStyle=orthogonalEdgeStyle;rounded=0;orthogonalLoop=1;jettySize=auto;html=1;endArrow=circlePlus;endFill=0;" parent="1" edge="1">
          <mxGeometry relative="1" as="geometry">
            <mxPoint x="890" y="290" as="sourcePoint" />
            <mxPoint x="890" y="549" as="targetPoint" />
            <Array as="points">
              <mxPoint x="890" y="549" />
            </Array>
          </mxGeometry>
        </mxCell>
        <mxCell id="Q1dbe1PUV9DMPkc63lTy-88" style="edgeStyle=orthogonalEdgeStyle;rounded=0;orthogonalLoop=1;jettySize=auto;html=1;entryX=0.75;entryY=0;entryDx=0;entryDy=0;endArrow=open;endFill=0;" parent="1" edge="1">
          <mxGeometry relative="1" as="geometry">
            <mxPoint x="680.0000000000002" y="491" as="sourcePoint" />
            <mxPoint x="715" y="491" as="targetPoint" />
            <Array as="points">
              <mxPoint x="680" y="471" />
              <mxPoint x="715" y="471" />
            </Array>
          </mxGeometry>
        </mxCell>
        <mxCell id="Q1dbe1PUV9DMPkc63lTy-89" value="- next" style="text;html=1;align=center;verticalAlign=middle;resizable=0;points=[];autosize=1;strokeColor=none;fillColor=none;" parent="1" vertex="1">
          <mxGeometry x="670" y="449" width="50" height="30" as="geometry" />
        </mxCell>
        <mxCell id="Q1dbe1PUV9DMPkc63lTy-90" value="0..1" style="text;html=1;align=center;verticalAlign=middle;resizable=0;points=[];autosize=1;strokeColor=none;fillColor=none;" parent="1" vertex="1">
          <mxGeometry x="711" y="466" width="40" height="30" as="geometry" />
        </mxCell>
      </root>
    </mxGraphModel>
  </diagram>
</mxfile>
